<svg width="121" height="89" viewBox="0 0 121 89" fill="none" xmlns="http://www.w3.org/2000/svg">
<path d="M63.139 5.5218H26.5785C25.593 5.5218 24.7943 4.72309 24.7943 3.73752C24.7943 2.75196 25.5932 1.95325 26.5785 1.95325H63.139C64.1246 1.95325 64.9235 2.75196 64.9235 3.73752C64.9235 4.72309 64.1248 5.5218 63.139 5.5218Z" fill="#06D2BA"/>
<path d="M28.1934 18.6013H9.37443C8.38887 18.6013 7.59015 17.8026 7.59015 16.817C7.59015 15.8314 8.3891 15.0327 9.37443 15.0327H28.1934C29.1789 15.0327 29.9777 15.8314 29.9777 16.817C29.9777 17.8026 29.1789 18.6013 28.1934 18.6013Z" fill="#06D2BA"/>
<path d="M21.8767 30.7602H14.4428C13.4572 30.7602 12.6585 29.9615 12.6585 28.9759C12.6585 27.9904 13.4575 27.1917 14.4428 27.1917H21.8769C22.8625 27.1917 23.6612 27.9904 23.6612 28.9759C23.6612 29.9615 22.8623 30.7602 21.8767 30.7602Z" fill="#06D2BA"/>
<path d="M19.9881 45.7922H1.78428C0.798717 45.7922 0 44.9935 0 44.0079C0 43.0223 0.798951 42.2236 1.78428 42.2236H19.9878C20.9734 42.2236 21.7721 43.0223 21.7721 44.0079C21.7721 44.9935 20.9734 45.7922 19.9881 45.7922Z" fill="#06D2BA"/>
<path d="M65.5183 86.0638H26.5785C25.593 86.0638 24.7943 85.2651 24.7943 84.2793C24.7943 83.2935 25.5932 82.495 26.5785 82.495H65.5183C66.5038 82.495 67.3025 83.2937 67.3025 84.2793C67.3025 85.2648 66.5038 86.0638 65.5183 86.0638Z" fill="#06D2BA"/>
<path d="M28.1934 72.9844H9.37443C8.38887 72.9844 7.59015 72.1857 7.59015 71.2002C7.59015 70.2146 8.3891 69.4156 9.37443 69.4156H28.1934C29.1789 69.4156 29.9777 70.2144 29.9777 71.2002C29.9777 72.186 29.1789 72.9844 28.1934 72.9844Z" fill="#06D2BA"/>
<path d="M21.8767 60.8254H14.4428C13.4572 60.8254 12.6585 60.0267 12.6585 59.0409C12.6585 58.0551 13.4575 57.2566 14.4428 57.2566H21.8769C22.8625 57.2566 23.6612 58.0553 23.6612 59.0409C23.6612 60.0264 22.8623 60.8254 21.8767 60.8254Z" fill="#06D2BA"/>
<path d="M76.1481 88.0164C100.453 88.0164 120.156 68.3132 120.156 44.0082C120.156 19.7031 100.453 0 76.1481 0C51.843 0 32.1399 19.7031 32.1399 44.0082C32.1399 68.3132 51.843 88.0164 76.1481 88.0164Z" fill="url(#paint0_linear)"/>
<path d="M76.1482 0C75.0342 0 73.9302 0.0421982 72.837 0.123547C95.5954 1.81663 113.534 20.817 113.534 44.0082C113.534 67.1993 95.5954 86.1998 72.837 87.8928C73.9302 87.9742 75.0342 88.0164 76.1482 88.0164C100.453 88.0164 120.157 68.3134 120.157 44.0082C120.157 19.703 100.453 0 76.1482 0V0Z" fill="url(#paint1_linear)"/>
<path d="M76.1483 77.8005C94.8113 77.8005 109.941 62.6712 109.941 44.0082C109.941 25.3453 94.8113 10.2159 76.1483 10.2159C57.4854 10.2159 42.3561 25.3453 42.3561 44.0082C42.3561 62.6712 57.4854 77.8005 76.1483 77.8005Z" fill="#F4FBFF"/>
<path d="M76.1484 10.2156C75.1202 10.2156 74.1037 10.2641 73.0989 10.3541C90.3326 11.896 103.842 26.3732 103.842 44.0081C103.842 61.6429 90.3326 76.1199 73.0989 77.6618C74.1037 77.7516 75.1202 77.8001 76.1484 77.8001C94.8115 77.8001 109.941 62.6709 109.941 44.0078C109.941 25.345 94.8115 10.2156 76.1484 10.2156V10.2156Z" fill="#DAF1F4"/>
<path d="M76.1484 22.5553C75.1628 22.5553 74.3639 21.7565 74.3639 20.771V18.0471C74.3639 17.0615 75.1626 16.2628 76.1484 16.2628C77.1342 16.2628 77.9327 17.0615 77.9327 18.0471V20.7708C77.9327 21.7563 77.134 22.5553 76.1484 22.5553Z" fill="#365E7D"/>
<path d="M92.5797 29.3611C92.1232 29.3611 91.6663 29.1869 91.3177 28.8385C90.621 28.1415 90.621 27.0118 91.3177 26.3148L93.2436 24.389C93.9406 23.6925 95.0703 23.6925 95.7673 24.389C96.464 25.0859 96.464 26.2157 95.7673 26.9126L93.8414 28.8385C93.493 29.1869 93.0364 29.3611 92.5797 29.3611V29.3611Z" fill="#365E7D"/>
<path d="M102.11 45.7929H99.3862C98.4006 45.7929 97.6017 44.9942 97.6017 44.0084C97.6017 43.0226 98.4004 42.2241 99.3862 42.2241H102.11C103.095 42.2241 103.894 43.0228 103.894 44.0084C103.894 44.994 103.095 45.7929 102.11 45.7929Z" fill="#365E7D"/>
<path d="M94.5056 64.15C94.0491 64.15 93.5922 63.9758 93.2436 63.6275L91.3177 61.7016C90.621 61.0046 90.621 59.8749 91.3177 59.1779C92.0147 58.4814 93.1444 58.4814 93.8414 59.1779L95.7673 61.1038C96.464 61.8007 96.464 62.9305 95.7673 63.6275C95.4189 63.9758 94.9622 64.15 94.5056 64.15Z" fill="#365E7D"/>
<path d="M76.1484 71.754C75.1628 71.754 74.3639 70.9553 74.3639 69.9695V67.2461C74.3639 66.2605 75.1626 65.4618 76.1484 65.4618C77.1342 65.4618 77.9327 66.2605 77.9327 67.2461V69.9695C77.9327 70.9553 77.134 71.754 76.1484 71.754Z" fill="#365E7D"/>
<path d="M57.7909 64.15C57.3342 64.15 56.8776 63.9758 56.5292 63.6275C55.8322 62.9305 55.8322 61.8007 56.5292 61.1038L58.4551 59.1779C59.1518 58.4814 60.2818 58.4814 60.9785 59.1779C61.6755 59.8749 61.6755 61.0046 60.9785 61.7016L59.0527 63.6275C58.7043 63.9758 58.2476 64.15 57.7909 64.15V64.15Z" fill="#365E7D"/>
<path d="M52.9108 45.7929H50.1872C49.2016 45.7929 48.4029 44.9942 48.4029 44.0084C48.4029 43.0226 49.2018 42.2241 50.1872 42.2241H52.9108C53.8964 42.2241 54.6951 43.0228 54.6951 44.0084C54.6951 44.994 53.8962 45.7929 52.9108 45.7929Z" fill="#365E7D"/>
<path d="M59.7168 29.3611C59.2601 29.3611 58.8034 29.1869 58.4551 28.8385L56.5292 26.9126C55.8322 26.2157 55.8322 25.0859 56.5292 24.389C57.2259 23.6925 58.3559 23.6925 59.0527 24.389L60.9785 26.3148C61.6755 27.0118 61.6755 28.1415 60.9785 28.8385C60.6302 29.1869 60.1735 29.3611 59.7168 29.3611V29.3611Z" fill="#365E7D"/>
<path d="M83.9593 45.7927H76.1485C75.1629 45.7927 74.364 44.994 74.364 44.0082V28.9756C74.364 27.99 75.1627 27.1913 76.1485 27.1913C77.1343 27.1913 77.9327 27.99 77.9327 28.9756V42.2237H83.9593C84.9449 42.2237 85.7439 43.0224 85.7439 44.0079C85.7439 44.9935 84.9449 45.7927 83.9593 45.7927Z" fill="#2B4D66"/>
<defs>
<linearGradient id="paint0_linear" x1="32.1399" y1="0" x2="120.156" y2="88.0164" gradientUnits="userSpaceOnUse">
<stop stop-color="#8AE6DC"/>
<stop offset="1" stop-color="#00B3A0"/>
</linearGradient>
<linearGradient id="paint1_linear" x1="72.837" y1="0" x2="146.255" y2="39.4714" gradientUnits="userSpaceOnUse">
<stop stop-color="#79F1CD"/>
<stop offset="1" stop-color="#0E90AD"/>
</linearGradient>
</defs>
</svg>
