<svg width="74" height="74" viewBox="0 0 74 74" fill="none" xmlns="http://www.w3.org/2000/svg">
<path d="M42.9397 18.4028V73.6105H12.2687V18.955L18.4029 12.2686H36.8055L42.9397 18.4028Z" fill="#FFC34D"/>
<path d="M42.9397 18.4028V73.6105H27.6042V12.2686H36.8055L42.9397 18.4028Z" fill="#FF9933"/>
<path d="M15.3357 49.0736H39.8725V55.2078H15.3357V49.0736Z" fill="#FFDD33"/>
<path d="M27.6042 49.0736H39.8726V55.2078H27.6042V49.0736Z" fill="#FFC34D"/>
<path d="M61.3422 6.1344V68.3352L55.208 73.6106H36.8054V24.537L42.9396 21.4086L36.8054 18.4028V6.1344H61.3422Z" fill="#D5E8FE"/>
<path d="M36.8054 18.4027H58.2751V24.5369H36.8054V18.4027Z" fill="#EDF5FF"/>
<path d="M61.3422 6.1344V68.3352L55.208 73.6106H46.0067V6.1344H61.3422Z" fill="#B5DBFF"/>
<path d="M46.0067 18.4027H58.2751V24.5369H46.0067V18.4027Z" fill="#D5E8FE"/>
<path d="M18.4026 49.0736L12.2684 52.0794L18.4026 55.2078V73.6104H0V55.2078L6.1342 51.6498L0 49.0736V0H18.4026V49.0736Z" fill="#8DF2DF"/>
<path d="M18.4027 49.0737L12.2685 52.0795L18.4027 55.2079V73.6105H9.20142V0.00012207H18.4027V49.0737Z" fill="#52D9C0"/>
<path d="M0 49.0736H18.4026V55.2078H0V49.0736Z" fill="#BFFFE5"/>
<path d="M9.20142 49.0736H18.4027V55.2078H9.20142V49.0736Z" fill="#8DF2DF"/>
<path d="M73.6105 12.2685L67.4763 15.2743L73.6105 18.4027V73.6105H55.2079V18.4027L61.3421 15.5808L55.2079 12.2685V0.00012207H73.6105V12.2685Z" fill="#E63950"/>
<path d="M73.6105 12.2685L67.4763 15.2743L73.6105 18.4027V73.6105H64.4092V0.00012207H73.6105V12.2685Z" fill="#AE2538"/>
<path d="M55.2079 12.2686H73.6105V18.4028H55.2079V12.2686Z" fill="#FF6C6C"/>
<path d="M64.4092 12.2686H73.6105V18.4028H64.4092V12.2686Z" fill="#E63950"/>
</svg>
